<svg width="20" height="20" viewBox="0 0 20 20" fill="none" xmlns="http://www.w3.org/2000/svg">
<path d="M11.1242 9.99543L19.5662 1.54518C19.7151 1.39551 19.7987 1.19292 19.7985 0.981777C19.7984 0.770634 19.7146 0.568152 19.5654 0.418682C19.2669 0.121682 18.7412 0.120182 18.4397 0.420182L9.99994 8.87043L1.55719 0.417932C1.25719 0.121682 0.73144 0.123181 0.43294 0.419431C0.358849 0.493227 0.300197 0.581039 0.260407 0.677745C0.220618 0.774451 0.200487 0.878113 0.20119 0.982682C0.20119 1.19568 0.28369 1.39518 0.43294 1.54293L8.87494 9.99468L0.43369 18.4472C0.284729 18.5971 0.201309 18.7999 0.201731 19.0113C0.202153 19.2226 0.286382 19.4251 0.43594 19.5744C0.58069 19.7177 0.78544 19.8002 0.99694 19.8002H1.00144C1.21369 19.7994 1.41844 19.7162 1.56019 19.5714L9.99994 11.1212L18.4427 19.5737C18.5919 19.7222 18.7914 19.8047 19.0029 19.8047C19.1075 19.8048 19.211 19.7843 19.3076 19.7443C19.4042 19.7044 19.4919 19.6457 19.5658 19.5718C19.6398 19.4979 19.6984 19.4102 19.7383 19.3136C19.7783 19.217 19.7988 19.1135 19.7987 19.0089C19.7987 18.7967 19.7162 18.5964 19.5662 18.4487L11.1242 9.99543Z" fill="#111111"/>
</svg>
