<svg xmlns="http://www.w3.org/2000/svg" version="1.1" xmlns:xlink="http://www.w3.org/1999/xlink" xmlns:svgjs="http://svgjs.dev/svgjs" width="1500" height="1500" viewBox="0 0 1500 1500"><rect width="1500" height="1500" fill="#ffffff"></rect><g transform="matrix(0.6666666666666666,0,0,0.6666666666666666,249.39393939393938,599.6326336536868)"><svg viewBox="0 0 396 119" data-background-color="#ffffff" preserveAspectRatio="xMidYMid meet" height="450" width="1500" xmlns="http://www.w3.org/2000/svg" xmlns:xlink="http://www.w3.org/1999/xlink"><g id="tight-bounds" transform="matrix(1,0,0,1,0.2400000000000091,0.14572198403760694)"><svg viewBox="0 0 395.52 118.70855603192477" height="118.70855603192477" width="395.52"><g><svg viewBox="0 0 684.5942778083556 205.46925107794362" height="118.70855603192477" width="395.52"><g><rect width="13.407691104541295" height="178.41034825870645" x="430.6186678129353" y="13.529451409618588" fill="#000000" opacity="1" stroke-width="0" stroke="transparent" fill-opacity="1" class="rect-yte-0" data-fill-palette-color="primary" rx="1%" id="yte-0" data-palette-color="#636365"></rect></g><g transform="matrix(1,0,0,1,0,28.396980431177454)"><svg viewBox="0 0 395.52 148.67529021558872" height="148.67529021558872" width="395.52"><g id="textblocktransform"><svg viewBox="0 0 395.52 148.67529021558872" height="148.67529021558872" width="395.52" id="textblock"><g><svg viewBox="0 0 395.52 148.67529021558872" height="148.67529021558872" width="395.52"><g transform="matrix(1,0,0,1,0,0)"><svg width="395.52" viewBox="2.55 -33.4 90.44 34" height="148.67529021558872" data-palette-color="#636365"><path d="M25.5-15.6L25.5 0 22.95 0 21.9-3.75Q19.35 0.6 14.3 0.6L14.3 0.6Q9.7 0.6 7.13-1.28 4.55-3.15 3.55-6.6 2.55-10.05 2.55-15.3L2.55-15.3Q2.55-20.65 3.63-24.13 4.7-27.6 7.38-29.43 10.05-31.25 14.8-31.25L14.8-31.25Q19.85-31.25 22.05-29.18 24.25-27.1 24.75-23.05L24.75-23.05 20.65-22.3Q20.05-29.15 14.8-29.15L14.8-29.15Q11.95-29.15 10.4-27.65 8.85-26.15 8.25-23.2 7.65-20.25 7.65-15.3L7.65-15.3Q7.65-10.5 8.2-7.55 8.75-4.6 10.18-3.08 11.6-1.55 14.3-1.55L14.3-1.55Q20.85-1.55 21.1-10.55L21.1-10.55 21.1-13.1 15.5-13.1 15.5-15.6 25.5-15.6ZM35.75-27.15Q34.45-27.15 33.55-28.08 32.65-29 32.65-30.25L32.65-30.25Q32.65-31.55 33.55-32.48 34.45-33.4 35.75-33.4L35.75-33.4Q37.05-33.4 37.97-32.48 38.9-31.55 38.9-30.25L38.9-30.25Q38.9-29 37.95-28.08 37-27.15 35.75-27.15L35.75-27.15ZM38.15-24L38.15 0 33.2 0 33.2-24 38.15-24ZM64.84-30.65L67.95-30.65 58.45 0 52.5 0 42.95-30.65 48.05-30.65 56.45-2.3 64.84-30.65ZM76.64-8.95Q76.79-5.35 78.12-3.43 79.44-1.5 82.24-1.5L82.24-1.5Q85.09-1.5 86.52-3.45 87.94-5.4 87.94-8.55L87.94-8.55Q87.94-16.2 77.94-16.2L77.94-16.2 73.59-16.2 74.59-30.65 91.09-30.65 91.09-26.65 76.39-26.65 75.69-18.2 79.39-18.2Q86.19-18.2 89.59-15.63 92.99-13.05 92.99-8.55L92.99-8.55Q92.99-6 91.79-3.93 90.59-1.85 88.17-0.63 85.74 0.6 82.24 0.6L82.24 0.6Q72.79 0.6 72.24-8.5L72.24-8.5 76.64-8.95Z" opacity="1" transform="matrix(1,0,0,1,0,0)" fill="#000000" class="wordmark-text-0" data-fill-palette-color="primary" id="text-0"></path></svg></g></svg></g></svg></g></svg></g><g transform="matrix(1,0,0,1,479.12502673041195,0)"><svg viewBox="0 0 205.46925107794362 205.46925107794362" height="205.46925107794362" width="205.46925107794362"><g><svg xmlns="http://www.w3.org/2000/svg" xmlns:xlink="http://www.w3.org/1999/xlink" xml:space="preserve" style="shape-rendering:geometricPrecision;text-rendering:geometricPrecision;image-rendering:optimizeQuality;" viewBox="0 0 6827 6827" x="0" y="0" fill-rule="evenodd" clip-rule="evenodd" height="205.46925107794362" width="205.46925107794362" class="icon-icon-0" data-fill-palette-color="accent" id="icon-0"><g fill="#0033c7" data-fill-palette-color="accent"><g fill="#0033c7" data-fill-palette-color="accent"><path class="" d="M1538 967L2534 855C2537 855 2539 854 2542 854 2586 851 2624 884 2628 928L2702 1906 2834 2400C2837 2408 2838 2416 2838 2425V3146L3413 3721C3428 3736 3437 3756 3437 3778V4580L4065 4748C4094 4754 4118 4775 4126 4806L4049 4827 4126 4806 4301 5460H4593C4629 5459 4662 5483 4672 5519L4595 5540 4672 5519 4766 5870C4769 5878 4770 5886 4770 5895 4770 5939 4734 5975 4690 5975H1549C1505 5975 1469 5939 1469 5895V1048C1469 1008 1499 973 1540 969z" fill="#000000" fill-rule="nonzero" data-fill-palette-color="accent"></path><path class="" d="M4118 2111C4203 2108 4281 2140 4340 2193 4399 2247 4438 2324 4442 2410S4414 2576 4360 2635 4229 2733 4143 2737 3977 2709 3918 2655C3861 2602 3822 2529 3817 2445 3817 2443 3816 2440 3816 2438V2434C3813 2349 3845 2271 3898 2212 3951 2155 4024 2116 4108 2111H4119z" fill="#000000" fill-rule="nonzero" data-fill-palette-color="accent"></path><path class="" d="M4152 2815C4209 2781 4265 2759 4318 2748 4486 2713 4619 2784 4725 2917 4819 3035 4890 3205 4942 3388 5041 3732 5078 4129 5088 4308 5136 4395 5357 4798 5359 4941H5360C5360 4942 5368 5124 5141 5139 5102 5147 4963 5162 4891 4981L4619 4463C4612 4450 4609 4437 4610 4423L4594 4072 4345 4196 4308 4548C4306 4565 4299 4581 4288 4593 4254 4637 4205 4667 4154 4683 4116 4695 4075 4700 4037 4698 3995 4695 3956 4683 3926 4662 3901 4644 3883 4621 3874 4592 3854 4530 3859 4186 3859 4185 3859 4180 3860 4175 3861 4170 3865 4139 3892 3965 3929 3887 3937 3869 3952 3856 3968 3849L4285 3691 4134 3448C4057 3504 3937 3583 3823 3632 3755 3661 3689 3680 3630 3679 3552 3678 3490 3646 3456 3569 3441 3535 3434 3493 3435 3441 3436 3416 3448 3393 3467 3379L4138 2824C4142 2820 4147 2818 4151 2815z" fill="#000000" fill-rule="nonzero" data-fill-palette-color="accent"></path><path class="" d="M2629 945L3669 3356C3695 3416 3665 3487 3604 3512S3475 3507 3448 3447L2372 1037C2345 977 2376 904 2437 881 2556 837 2577 869 2593 907 2599 922 2633 924 2628 946z" fill="#000000" data-fill-palette-color="accent"></path><path class="" d="M5279 3558S5217 3675 5104 3742C5091 3668 5077 3594 5060 3521 5048 3469 5035 3417 5020 3365 4971 3195 4899 3006 4788 2867 4763 2835 4736 2807 4707 2781 4750 2754 4796 2730 4842 2714 4957 2674 5070 2680 5150 2791L5164 2824 5288 3507 5280 3559z" fill="#000000" fill-rule="nonzero" data-fill-palette-color="accent"></path></g></g></svg></g></svg></g></svg></g><defs></defs></svg><rect width="395.52" height="118.70855603192477" fill="none" stroke="none" visibility="hidden"></rect></g></svg></g></svg>