<svg width="37" height="33" viewBox="0 0 37 33" fill="none" xmlns="http://www.w3.org/2000/svg">
<path fill-rule="evenodd" clip-rule="evenodd" d="M0.5 12C0.5 11.4033 0.737053 10.831 1.15901 10.409C1.58097 9.98705 2.15326 9.75 2.75 9.75H25.943C26.5397 9.75 27.112 9.98705 27.534 10.409C27.9559 10.831 28.193 11.4033 28.193 12C28.193 12.5967 27.9559 13.169 27.534 13.591C27.112 14.0129 26.5397 14.25 25.943 14.25H2.75C2.15326 14.25 1.58097 14.0129 1.15901 13.591C0.737053 13.169 0.5 12.5967 0.5 12ZM0.5 3C0.5 2.40326 0.737053 1.83097 1.15901 1.40901C1.58097 0.987053 2.15326 0.75 2.75 0.75H34.25C34.8467 0.75 35.419 0.987053 35.841 1.40901C36.2629 1.83097 36.5 2.40326 36.5 3C36.5 3.59674 36.2629 4.16903 35.841 4.59099C35.419 5.01295 34.8467 5.25 34.25 5.25H2.75C2.15326 5.25 1.58097 5.01295 1.15901 4.59099C0.737053 4.16903 0.5 3.59674 0.5 3ZM0.5 21C0.5 20.4033 0.737053 19.831 1.15901 19.409C1.58097 18.9871 2.15326 18.75 2.75 18.75H34.25C34.8467 18.75 35.419 18.9871 35.841 19.409C36.2629 19.831 36.5 20.4033 36.5 21C36.5 21.5967 36.2629 22.169 35.841 22.591C35.419 23.0129 34.8467 23.25 34.25 23.25H2.75C2.15326 23.25 1.58097 23.0129 1.15901 22.591C0.737053 22.169 0.5 21.5967 0.5 21ZM0.5 30C0.5 29.4033 0.737053 28.831 1.15901 28.409C1.58097 27.9871 2.15326 27.75 2.75 27.75H25.943C26.5397 27.75 27.112 27.9871 27.534 28.409C27.9559 28.831 28.193 29.4033 28.193 30C28.193 30.5967 27.9559 31.169 27.534 31.591C27.112 32.0129 26.5397 32.25 25.943 32.25H2.75C2.15326 32.25 1.58097 32.0129 1.15901 31.591C0.737053 31.169 0.5 30.5967 0.5 30Z" fill="#111111"/>
</svg>
